<svg width="600" height="600" viewBox="0 0 600 600" fill="none" xmlns="http://www.w3.org/2000/svg">
<path d="M534.386 226.74C528.836 213.55 519.616 204.04 507.716 199.25L507.556 199.19C502.139 197.07 496.373 195.984 490.556 195.99H489.916C462.676 196.4 434.866 219.55 420.726 253.6C410.356 278.5 409.166 305.28 417.546 325.24C423.086 338.44 432.326 347.95 444.276 352.74L444.406 352.79C449.822 354.911 455.589 355.996 461.406 355.99C488.906 355.99 517.006 332.84 531.406 298.34C541.646 273.47 542.776 246.71 534.386 226.74ZM425.546 373.6C409.836 364.16 394.986 355.23 385.286 339.19C358.526 294.79 342.366 267.99 299.996 267.99C257.626 267.99 241.426 294.79 214.606 339.19C204.886 355.25 190.006 364.19 174.246 373.67C156.176 384.53 137.506 395.75 129.446 417.83C126.312 425.79 124.733 434.276 124.796 442.83C124.796 478.78 152.796 508.03 187.196 508.03C204.946 508.03 223.836 501.88 243.826 495.37C263.046 489.11 282.916 482.64 300.096 482.64C317.276 482.64 337.096 489.11 356.246 495.37C376.196 501.84 394.996 507.99 412.796 507.99C447.146 507.99 475.096 478.74 475.096 442.79C475.124 434.23 473.512 425.744 470.346 417.79C462.286 395.69 443.606 384.46 425.546 373.6ZM193.996 232.84C205.896 247.77 220.996 255.99 236.516 255.99C238.634 255.99 240.75 255.833 242.846 255.52C275.216 250.76 295.386 211.26 288.766 165.52C285.996 146.29 278.596 128.38 267.996 115.1C256.116 100.2 240.996 91.9902 225.486 91.9902C223.367 91.9907 221.251 92.1478 219.156 92.4602C186.786 97.2202 166.616 136.72 173.236 182.46C175.996 201.66 183.396 219.55 193.996 232.84ZM357.156 255.52C359.251 255.833 361.367 255.99 363.486 255.99C379.016 255.99 394.106 247.77 406.006 232.84C416.596 219.55 423.956 201.66 426.756 182.44C433.376 136.72 413.206 97.2202 380.836 92.4402C378.74 92.1278 376.624 91.9707 374.506 91.9702C358.996 91.9902 343.876 100.2 331.996 115.1C321.396 128.38 313.996 146.29 311.236 165.54C304.616 211.26 324.786 250.76 357.156 255.52ZM155.586 352.79L155.726 352.74C167.656 347.95 176.886 338.45 182.416 325.26C190.796 305.26 189.616 278.51 179.266 253.61C164.936 219.15 136.846 195.99 109.376 195.99C103.559 195.982 97.7917 197.067 92.3757 199.19L92.2357 199.24C80.3357 203.99 71.1057 213.53 65.5757 226.72C57.1957 246.72 58.3757 273.47 68.7257 298.37C83.0557 332.83 111.146 355.99 138.616 355.99C144.423 355.995 150.179 354.909 155.586 352.79Z" fill="black" stroke="black" stroke-width="64"/>
<path d="M534.386 226.74C528.836 213.55 519.616 204.04 507.716 199.25L507.556 199.19C502.139 197.07 496.373 195.984 490.556 195.99H489.916C462.676 196.4 434.866 219.55 420.726 253.6C410.356 278.5 409.166 305.28 417.546 325.24C423.086 338.44 432.326 347.95 444.276 352.74L444.406 352.79C449.822 354.911 455.589 355.996 461.406 355.99C488.906 355.99 517.006 332.84 531.406 298.34C541.646 273.47 542.776 246.71 534.386 226.74ZM425.546 373.6C409.836 364.16 394.986 355.23 385.286 339.19C358.526 294.79 342.366 267.99 299.996 267.99C257.626 267.99 241.426 294.79 214.606 339.19C204.886 355.25 190.006 364.19 174.246 373.67C156.176 384.53 137.506 395.75 129.446 417.83C126.312 425.79 124.733 434.276 124.796 442.83C124.796 478.78 152.796 508.03 187.196 508.03C204.946 508.03 223.836 501.88 243.826 495.37C263.046 489.11 282.916 482.64 300.096 482.64C317.276 482.64 337.096 489.11 356.246 495.37C376.196 501.84 394.996 507.99 412.796 507.99C447.146 507.99 475.096 478.74 475.096 442.79C475.124 434.23 473.512 425.744 470.346 417.79C462.286 395.69 443.606 384.46 425.546 373.6ZM193.996 232.84C205.896 247.77 220.996 255.99 236.516 255.99C238.634 255.99 240.75 255.833 242.846 255.52C275.216 250.76 295.386 211.26 288.766 165.52C285.996 146.29 278.596 128.38 267.996 115.1C256.116 100.2 240.996 91.9902 225.486 91.9902C223.367 91.9907 221.251 92.1478 219.156 92.4602C186.786 97.2202 166.616 136.72 173.236 182.46C175.996 201.66 183.396 219.55 193.996 232.84ZM357.156 255.52C359.251 255.833 361.367 255.99 363.486 255.99C379.016 255.99 394.106 247.77 406.006 232.84C416.596 219.55 423.956 201.66 426.756 182.44C433.376 136.72 413.206 97.2202 380.836 92.4402C378.74 92.1278 376.624 91.9707 374.506 91.9702C358.996 91.9902 343.876 100.2 331.996 115.1C321.396 128.38 313.996 146.29 311.236 165.54C304.616 211.26 324.786 250.76 357.156 255.52ZM155.586 352.79L155.726 352.74C167.656 347.95 176.886 338.45 182.416 325.26C190.796 305.26 189.616 278.51 179.266 253.61C164.936 219.15 136.846 195.99 109.376 195.99C103.559 195.982 97.7917 197.067 92.3757 199.19L92.2357 199.24C80.3357 203.99 71.1057 213.53 65.5757 226.72C57.1957 246.72 58.3757 273.47 68.7257 298.37C83.0557 332.83 111.146 355.99 138.616 355.99C144.423 355.995 150.179 354.909 155.586 352.79Z" fill="white"/>
</svg>
